<svg viewBox="0 0 800 800" xmlns="http://www.w3.org/2000/svg"><path d="M400.00000000000006,756.3169155409232 L400,-24.577829640655068 M340.88883396354584,790.4414455015476 L340.82308183224825,9.508653868086526 M400.00000000000006,756.3169155409232 L340.88883396354584,790.4414455015476 M400,-24.577829640655068 L340.82308183224825,9.508653868086526 M400.00000000000006,824.5726114326061 L400,43.601773322611564 M340.88883396354584,790.4414455015476 L400.00000000000006,824.5726114326061 M340.82308183224825,9.508653868086526 L400,43.601773322611564 M459.1111660364543,790.4414455015478 L459.1769181677517,9.508653868086526 M400.00000000000006,824.5726114326061 L459.1111660364543,790.4414455015478 M400,43.601773322611564 L459.1769181677517,9.508653868086526 M459.1111660364543,790.4414455015478 L400.00000000000006,756.3169155409232 M459.1769181677517,9.508653868086526 L400,-24.577829640655068" stroke="black"  stroke-width="4"  fill="red"/>
<path d="M404.22178637604685,753.8797029914715 L404.22648197800834,-27.012324587400542 M395.7782136239532,753.8797029914715 L395.7735180219917,-27.012324587400542 M404.22178637604685,753.8797029914715 L403.1764975790773,753.398482468956 M403.1764975790773,753.398482468956 L401.97193003056896,753.0636033642197 M401.97193003056896,753.0636033642197 L400.6684817167128,752.8918589078921 M400.6684817167128,752.8918589078921 L399.3315182832873,752.8918589078921 M399.3315182832873,752.8918589078921 L398.02806996943116,753.0636033642197 M398.02806996943116,753.0636033642197 L396.8235024209228,753.398482468956 M396.8235024209228,753.398482468956 L395.7782136239532,753.8797029914715 M404.22648197800834,-27.012324587400542 L403.1800305735165,-27.493008522728246 M403.1800305735165,-27.493008522728246 L401.97412326730364,-27.827514218091665 M401.97412326730364,-27.827514218091665 L400.66922522075026,-27.99906716924346 M400.66922522075026,-27.99906716924346 L399.3307747792498,-27.99906716924346 M399.3307747792498,-27.99906716924346 L398.02587673269636,-27.827514218091665 M398.02587673269636,-27.827514218091665 L396.81996942648345,-27.493008522728246 M396.81996942648345,-27.493008522728246 L395.7735180219917,-27.012324587400542 M336.66704763025405,788.0037590282647 L336.5965998971378,7.073684999352281 M395.7782136239532,753.8797029914715 L336.66704763025405,788.0037590282647 M395.7735180219917,-27.012324587400542 L336.5965998971378,7.073684999352281 M336.66616799980704,792.8791658318225 L336.5957183086938,11.94365659368674 M336.66704763025405,788.0037590282647 L335.8332699002285,788.6073098013348 M335.8332699002285,788.6073098013348 L335.2529940289327,789.3028336202565 M335.2529940289327,789.3028336202565 L334.95532190545964,790.0554565376194 M334.95532190545964,790.0554565376194 L334.95517885994263,790.8274353143386 M334.95517885994263,790.8274353143386 L335.2525739945329,791.5800647693759 M335.2525739945329,791.5800647693759 L335.8325993480909,792.275600368759 M335.8325993480909,792.275600368759 L336.66616799980704,792.8791658318225 M336.5965998971378,7.073684999352281 L335.7618946005018,7.676562912772397 M335.7618946005018,7.676562912772397 L335.18097312156715,8.371311340114232 M335.18097312156715,8.371311340114232 L334.88296972916106,9.123095213496754 M334.88296972916106,9.123095213496754 L334.88282636523456,9.894213371535784 M334.88282636523456,9.894213371535784 L335.18055215219954,10.646003782568584 M335.18055215219954,10.646003782568584 L335.76122255576115,11.3407639903279 M335.76122255576115,11.3407639903279 L336.5957183086938,11.94365659368674 M395.77733399349665,827.0108058348367 L395.7726364335381,46.037250118488885 M336.66616799980704,792.8791658318225 L395.77733399349665,827.0108058348367 M336.5957183086938,11.94365659368674 L395.7726364335381,46.037250118488885 M404.22266600650346,827.0108058348367 L404.227363566462,46.037250118488885 M395.77733399349665,827.0108058348367 L396.8228318687778,827.4922282279063 M396.8228318687778,827.4922282279063 L398.0276499350266,827.8272493715042 M398.0276499350266,827.8272493715042 L399.3313752377687,827.9990671692435 M399.3313752377687,827.9990671692435 L400.66862476223133,827.9990671692435 M400.66862476223133,827.9990671692435 L401.97235006497345,827.8272493715042 M401.97235006497345,827.8272493715042 L403.1771681312223,827.4922282279063 M403.1771681312223,827.4922282279063 L404.22266600650346,827.0108058348367 M395.7726364335381,46.037250118488885 L396.81929738173534,46.518135923620434 M396.81929738173534,46.518135923620434 L398.02545576332403,46.852783657318014 M398.02545576332403,46.852783657318014 L399.33063141532165,47.02440994960887 M399.33063141532165,47.02440994960887 L400.66936858467835,47.02440994960887 M400.66936858467835,47.02440994960887 L401.97454423667597,46.852783657318014 M401.97454423667597,46.852783657318014 L403.1807026182646,46.518135923620434 M403.1807026182646,46.518135923620434 L404.227363566462,46.037250118488885 M463.333832000193,792.8791658318225 L463.4042816913062,11.94365659368674 M404.22266600650346,827.0108058348367 L463.333832000193,792.8791658318225 M404.227363566462,46.037250118488885 L463.4042816913062,11.94365659368674 M463.33295236974607,788.0037590282647 L463.4034001028622,7.073684999352281 M463.333832000193,792.8791658318225 L464.16740065190913,792.275600368759 M464.16740065190913,792.275600368759 L464.7474260054671,791.5800647693761 M464.7474260054671,791.5800647693761 L465.0448211400575,790.8274353143386 M465.0448211400575,790.8274353143386 L465.0446780945404,790.0554565376194 M465.0446780945404,790.0554565376194 L464.7470059710673,789.3028336202565 M464.7470059710673,789.3028336202565 L464.1667300997716,788.6073098013348 M464.1667300997716,788.6073098013348 L463.33295236974607,788.0037590282647 M463.4042816913062,11.94365659368674 L464.2387774442388,11.3407639903279 M464.2387774442388,11.3407639903279 L464.81944784780046,10.646003782568584 M464.81944784780046,10.646003782568584 L465.1171736347654,9.894213371535784 M465.1171736347654,9.894213371535784 L465.117030270839,9.123095213496754 M465.117030270839,9.123095213496754 L464.8190268784329,8.371311340114232 M464.8190268784329,8.371311340114232 L464.23810539949824,7.676562912772397 M464.23810539949824,7.676562912772397 L463.4034001028622,7.073684999352281 M463.33295236974607,788.0037590282647 L404.22178637604685,753.8797029914715 M463.4034001028622,7.073684999352281 L404.22648197800834,-27.012324587400542 M459.1111660364543,790.4414455015478 L459.1769181677517,9.508653868086526 M400.00000000000006,756.3169155409232 L400,-24.577829640655068 M459.1111660364543,790.4414455015478 L400.00000000000006,756.3169155409232 M459.1769181677517,9.508653868086526 L400,-24.577829640655068 M400.00000000000006,824.5726114326061 L400,43.601773322611564 M400.00000000000006,824.5726114326061 L459.1111660364543,790.4414455015478 M400,43.601773322611564 L459.1769181677517,9.508653868086526 M340.88883396354584,790.4414455015476 L340.82308183224825,9.508653868086526 M340.88883396354584,790.4414455015476 L400.00000000000006,824.5726114326061 M340.82308183224825,9.508653868086526 L400,43.601773322611564 M400.00000000000006,756.3169155409232 L340.88883396354584,790.4414455015476 M400,-24.577829640655068 L340.82308183224825,9.508653868086526" stroke="black"  stroke-width="4"  fill="red"/></svg>