<svg viewBox="0 0 800 800" xmlns="http://www.w3.org/2000/svg"><path d="M404.2164317536017,750.9973211571458 L404.2211213673861,-28.906978116934397 M395.7835682463983,750.9973211571458 L395.7788786326138,-28.906978116934397 M404.2164317536017,750.9973211571458 L403.1724687288248,750.5167143187217 M403.1724687288248,750.5167143187217 L401.96942696011536,750.1822634345192 M401.96942696011536,750.1822634345192 L400.6676378817472,750.0107368373666 M400.6676378817472,750.0107368373666 L399.3323621182527,750.0107368373666 M399.3323621182527,750.0107368373666 L398.0305730398846,750.1822634345192 M398.0305730398846,750.1822634345192 L396.8275312711751,750.5167143187217 M396.8275312711751,750.5167143187217 L395.7835682463983,750.9973211571458 M404.2211213673861,-28.906978116934397 L403.1759972177298,-29.387049045046638 M403.1759972177298,-29.387049045046638 L401.9716173976372,-29.72112699220702 M401.9716173976372,-29.72112699220702 L400.66838044208606,-29.892462324462713 M400.66838044208606,-29.892462324462713 L399.3316195579138,-29.892462324462713 M399.3316195579138,-29.892462324462713 L398.0283826023627,-29.72112699220702 M398.0283826023627,-29.72112699220702 L396.8240027822701,-29.387049045046638 M396.8240027822701,-29.387049045046638 L395.7788786326138,-28.906978116934397 M332.53006460491827,787.5124376993717 L332.4550151429205,7.567425792298309 M395.7835682463983,750.9973211571458 L332.53006460491827,787.5124376993717 M395.7788786326138,-28.906978116934397 L332.4550151429205,7.567425792298309 M332.52912751597466,792.3816946839761 L332.4540759680812,12.431254423630662 M332.53006460491827,787.5124376993717 L331.69733134840953,788.1152271558723 M331.69733134840953,788.1152271558723 L331.11778109005536,788.8098748046999 M331.11778109005536,788.8098748046999 L330.8204733977176,789.5615448837257 M330.8204733977176,789.5615448837257 L330.8203212579724,790.3325545331395 M330.8203212579724,790.3325545331395 L331.11733422967154,791.0842311415679 M331.11733422967154,791.0842311415679 L331.6966175750819,791.778890556012 M331.6966175750819,791.778890556012 L332.52912751597466,792.3816946839761 M332.4550151429205,7.567425792298309 L331.62135547369127,8.169543237891048 M331.62135547369127,8.169543237891048 L331.04116040570307,8.8634164719208 M331.04116040570307,8.8634164719208 L330.74352183993335,9.614248569215533 M330.74352183993335,9.614248569215533 L330.7433693615356,10.38439868035357 M330.7433693615356,10.38439868035357 L331.0407125506387,11.135237307026728 M331.0407125506387,11.135237307026728 L331.6206401115532,11.82912230662896 M331.6206401115532,11.82912230662896 L332.4540759680812,12.431254423630662 M395.7826311574432,828.9054338688853 L395.7779394577629,48.9142809435167 M332.52912751597466,792.3816946839761 L395.7826311574432,828.9054338688853 M332.4540759680812,12.431254423630662 L395.7779394577629,48.9142809435167 M404.2173688425567,828.9054338688853 L404.22206054223693,48.9142809435167 M395.7826311574432,828.9054338688853 L396.8268174978384,829.3862556764008 M396.8268174978384,829.3862556764008 L398.030126179495,829.7208577122051 M398.030126179495,829.7208577122051 L399.33220997850555,829.8924623244627 M399.33220997850555,829.8924623244627 L400.66779002149434,829.8924623244627 M400.66779002149434,829.8924623244627 L401.9698738205049,829.7208577122051 M401.9698738205049,829.7208577122051 L403.17318250216147,829.3862556764008 M403.17318250216147,829.3862556764008 L404.2173688425567,828.9054338688853 M395.7779394577629,48.9142809435167 L396.82328742012294,49.39456683992171 M396.82328742012294,49.39456683992171 L398.02793474729253,49.728795938122516 M398.02793474729253,49.728795938122516 L399.331467079514,49.900209285193455 M399.331467079514,49.900209285193455 L400.6685329204858,49.900209285193455 M400.6685329204858,49.900209285193455 L401.97206525270735,49.728795938122516 M401.97206525270735,49.728795938122516 L403.1767125798769,49.39456683992171 M403.1767125798769,49.39456683992171 L404.22206054223693,48.9142809435167 M467.4708724840253,792.3816946839761 L467.5459240319187,12.431254423630662 M404.2173688425567,828.9054338688853 L467.4708724840253,792.3816946839761 M404.22206054223693,48.9142809435167 L467.5459240319187,12.431254423630662 M467.4699353950817,787.5124376993717 L467.5449848570794,7.567425792298309 M467.4708724840253,792.3816946839761 L468.303382424918,791.778890556012 M468.303382424918,791.778890556012 L468.88266577032834,791.0842311415679 M468.88266577032834,791.0842311415679 L469.1796787420275,790.3325545331395 M469.1796787420275,790.3325545331395 L469.17952660228235,789.5615448837257 M469.17952660228235,789.5615448837257 L468.8822189099445,788.8098748046999 M468.8822189099445,788.8098748046999 L468.30266865159035,788.1152271558723 M468.30266865159035,788.1152271558723 L467.4699353950817,787.5124376993717 M467.5459240319187,12.431254423630662 L468.3793598884467,11.82912230662896 M468.3793598884467,11.82912230662896 L468.9592874493611,11.135237307026728 M468.9592874493611,11.135237307026728 L469.25663063846434,10.38439868035357 M469.25663063846434,10.38439868035357 L469.25647816006654,9.614248569215533 M469.25647816006654,9.614248569215533 L468.9588395942968,8.8634164719208 M468.9588395942968,8.8634164719208 L468.37864452630856,8.169543237891048 M468.37864452630856,8.169543237891048 L467.5449848570794,7.567425792298309 M467.4699353950817,787.5124376993717 L404.2164317536017,750.9973211571458 M467.5449848570794,7.567425792298309 L404.2211213673861,-28.906978116934397 M463.253503690281,789.9470492845315 L463.32386353865724,9.999323200885101 M399.99999999999994,753.43142561256 L399.99999999999994,-26.475587836115437 M463.253503690281,789.9470492845315 L399.99999999999994,753.43142561256 M463.32386353865724,9.999323200885101 L399.99999999999994,-26.475587836115437 M399.99999999999994,826.4702811706238 L399.99999999999994,46.48184242374441 M399.99999999999994,826.4702811706238 L463.253503690281,789.9470492845315 M399.99999999999994,46.48184242374441 L463.32386353865724,9.999323200885101 M336.74649630971896,789.9470492845315 L336.67613646134265,9.999323200885101 M336.74649630971896,789.9470492845315 L399.99999999999994,826.4702811706238 M336.67613646134265,9.999323200885101 L399.99999999999994,46.48184242374441 M399.99999999999994,753.43142561256 L336.74649630971896,789.9470492845315 M399.99999999999994,-26.475587836115437 L336.67613646134265,9.999323200885101" stroke="black"  stroke-width="4"  fill="red"/></svg>